<svg width="42" height="35" viewBox="0 0 42 35" fill="none" xmlns="http://www.w3.org/2000/svg">
<path d="M17.0013 0H2.12516C0.953347 0 0 0.953347 0 2.12516V15.9387C0 17.1105 0.953347 18.0639 2.12516 18.0639H10.9302C9.93438 22.951 5.56866 26.5645 0.53129 26.5645C0.237912 26.5645 0 26.8023 0 27.0958V34.0026C0 34.296 0.237912 34.5339 0.53129 34.5339C10.7847 34.5339 19.1264 26.1921 19.1264 15.9387V2.12516C19.1264 0.953347 18.1731 0 17.0013 0ZM18.0639 15.9387C18.0639 25.4286 10.4854 33.1816 1.06258 33.4634V27.6151C3.6999 27.4951 6.22119 26.4852 8.213 24.7406C10.3161 22.8986 11.6919 20.3655 12.0873 17.608C12.1092 17.4554 12.0638 17.3009 11.9628 17.1846C11.8619 17.0681 11.7154 17.0013 11.5614 17.0013H2.12516C1.53925 17.0013 1.06258 16.5246 1.06258 15.9387V2.12516C1.06258 1.53925 1.53925 1.06258 2.12516 1.06258H17.0013C17.5872 1.06258 18.0639 1.53925 18.0639 2.12516V15.9387ZM39.3155 0H24.4393C23.2675 0 22.3142 0.953347 22.3142 2.12516V15.9387C22.3142 17.1105 23.2675 18.0639 24.4393 18.0639H33.2448C32.249 22.951 27.8832 26.5645 22.8455 26.5645C22.552 26.5645 22.3142 26.8023 22.3142 27.0958V34.0026C22.3142 34.296 22.552 34.5339 22.8455 34.5339C33.0988 34.5339 41.4406 26.1921 41.4406 15.9387V2.12516C41.4406 0.953347 40.4874 0 39.3155 0ZM40.378 15.9387C40.378 25.4286 32.7996 33.1816 23.3768 33.4634V27.6151C26.0141 27.4952 28.5355 26.4852 30.5274 24.7406C32.6306 22.8986 34.0065 20.3655 34.4019 17.608C34.4238 17.4554 34.3783 17.3009 34.2775 17.1846C34.1765 17.0681 34.0301 17.0013 33.876 17.0013H24.4393C23.8534 17.0013 23.3768 16.5246 23.3768 15.9387V2.12516C23.3768 1.53925 23.8534 1.06258 24.4393 1.06258H39.3155C39.9014 1.06258 40.378 1.53925 40.378 2.12516V15.9387Z" fill="#1D8B8A"/>
</svg>
