<svg width="84" height="84" viewBox="0 0 84 84" fill="none" xmlns="http://www.w3.org/2000/svg">
<path d="M54.9533 22.6084H14.7269C14.0444 22.6084 13.4912 23.1616 13.4912 23.8441C13.4912 24.5266 14.0444 25.0798 14.7269 25.0798H54.9534C55.6359 25.0798 56.1891 24.5266 56.1891 23.8441C56.1891 23.1616 55.6358 22.6084 54.9533 22.6084Z" fill="#1D8B8A"/>
<path d="M14.7269 16.5081H34.84C35.5225 16.5081 36.0757 15.9548 36.0757 15.2723C36.0757 14.5898 35.5225 14.0366 34.84 14.0366H14.7269C14.0444 14.0366 13.4912 14.5898 13.4912 15.2723C13.4912 15.955 14.0444 16.5081 14.7269 16.5081Z" fill="#1D8B8A"/>
<path d="M54.9533 30.2031H14.7269C14.0444 30.2031 13.4912 30.7563 13.4912 31.4388C13.4912 32.1213 14.0444 32.6746 14.7269 32.6746H54.9534C55.6359 32.6746 56.1891 32.1213 56.1891 31.4388C56.189 30.7563 55.6358 30.2031 54.9533 30.2031Z" fill="#1D8B8A"/>
<path d="M23.8903 75.4143H11.0168C8.90386 75.4143 7.18465 73.6952 7.18465 71.5823V6.30345C7.18465 4.19048 8.90386 2.47127 11.0168 2.47127H48.1041C48.2239 2.47127 48.3419 2.48227 48.4585 2.49802V10.2047C48.4585 13.6805 51.2863 16.5081 54.762 16.5081H62.4685C62.4844 16.6249 62.4952 16.7429 62.4952 16.8627V37.9055C62.4952 38.588 63.0484 39.1412 63.7309 39.1412C64.4134 39.1412 64.9666 38.588 64.9666 37.9055V16.8628C64.9666 15.5074 64.4387 14.2329 63.4802 13.2743L51.6924 1.48641C50.7339 0.527953 49.4596 0 48.1041 0H11.0168C7.541 0 4.71338 2.82778 4.71338 6.30345V71.5823C4.71338 75.0579 7.54116 77.8856 11.0168 77.8856H23.8903C24.5728 77.8856 25.126 77.3323 25.126 76.6498C25.126 75.9673 24.5728 75.4143 23.8903 75.4143ZM60.7478 14.0369H54.7621C52.6492 14.0369 50.93 12.3176 50.93 10.2047V4.21903L60.7478 14.0369Z" fill="#1D8B8A"/>
<path d="M78.907 60.4946L68.4368 42.8218C67.6738 41.5332 66.0132 41.1073 64.7239 41.871L62.1772 43.3799C60.2004 44.551 59.3648 46.9209 60.0436 49.021C59.1855 49.3319 58.2448 49.327 57.3785 48.9921C55.3678 48.3595 53.8391 47.0869 51.3143 47.7254C47.0273 48.8169 47.1576 48.7623 46.7698 48.8952C44.2596 47.466 42.7507 47.0408 40.086 48.0716L37.7107 48.9899C36.611 49.4148 35.3993 49.314 34.383 48.7119L33.7348 48.3298C34.0511 46.4346 33.2107 44.4345 31.4309 43.3802C31.4309 43.3802 31.4309 43.3802 31.4307 43.3801L28.8842 41.8713C27.5986 41.1099 25.933 41.5362 25.1714 42.8218L14.701 60.4947C13.9379 61.783 14.3625 63.4441 15.6514 64.2075L18.198 65.7162C18.9686 66.1728 19.8154 66.3898 20.6522 66.3898C21.5852 66.3898 22.5051 66.1195 23.2916 65.6102L23.8223 65.9234L22.7018 67.4841C21.3665 69.3443 21.7908 71.9309 23.6512 73.2663C24.5116 73.8839 25.5924 74.1659 26.7102 73.9904C26.8875 75.0271 27.4555 75.9973 28.3752 76.6578C29.239 77.278 30.315 77.5604 31.4347 77.384C31.6125 78.4199 32.1802 79.3893 33.0994 80.0493C34.3348 80.9361 35.8708 81.0386 37.1506 80.492C37.4307 81.2194 37.9174 81.8763 38.5965 82.3639C40.3697 83.6366 42.8123 83.3047 44.19 81.6558L47.1678 83.4198C49.137 84.5868 51.6779 83.9383 52.8455 81.9667C53.1441 81.4627 53.3293 80.9135 53.3971 80.3489L53.4038 80.353C55.3701 81.5175 57.9167 80.8656 59.0815 78.8998C59.4188 78.3303 59.6037 77.7126 59.6487 77.0936C61.3818 77.5293 63.2707 76.8014 64.2272 75.187C64.541 74.6574 64.723 74.0853 64.7828 73.5096C66.6404 74.2386 68.8114 73.5341 69.8604 71.7635C70.4246 70.8111 70.5843 69.6962 70.3098 68.6237C70.1528 68.0101 69.864 67.4531 69.4677 66.9827L71.1089 66.0238C72.4974 66.5938 74.0819 66.5025 75.4098 65.716L77.9561 64.2073C79.245 63.4444 79.6707 61.7836 78.907 60.4946ZM19.4576 63.5901L16.911 62.0812C16.7978 62.0141 16.7603 61.8674 16.8272 61.7542L27.2977 44.0809C27.3651 43.9672 27.5123 43.9303 27.6248 43.9973L30.1712 45.5058C31.3028 46.1763 31.6568 47.6276 30.9986 48.7385L22.6903 62.7626C22.0272 63.8821 20.5772 64.2531 19.4576 63.5901ZM25.0924 71.2587C24.3419 70.7199 24.1703 69.6762 24.7094 68.9254L26.3565 66.6312C26.8811 65.9003 27.9267 65.7003 28.6897 66.2481C29.4387 66.7857 29.6105 67.8323 29.073 68.5812L27.4258 70.8755C26.8882 71.6247 25.841 71.796 25.0924 71.2587ZM29.8165 74.6504C29.0676 74.1126 28.8958 73.0657 29.4334 72.3169L31.0805 70.0228C31.0805 70.0228 31.0805 70.0228 31.0805 70.0227C31.0805 70.0227 31.0805 70.0225 31.0806 70.0225L32.8983 67.4907C33.1588 67.1279 33.5449 66.8881 33.9855 66.8159C34.0771 66.8008 34.1688 66.7934 34.2598 66.7934C34.6067 66.7934 34.9441 66.9014 35.2316 67.1076C35.5942 67.3681 35.834 67.754 35.9062 68.1947C35.9786 68.6355 35.875 69.078 35.6145 69.4407L32.1497 74.2671C31.6112 75.0177 30.5673 75.1895 29.8165 74.6504ZM34.5407 78.0417C33.7921 77.5042 33.6202 76.4582 34.1568 75.7094C34.157 75.7091 34.1573 75.7087 34.1575 75.7084L37.6223 70.8822C38.1596 70.1334 39.207 69.9615 39.9556 70.4989C40.7045 71.0366 40.8763 72.0833 40.3387 72.8322L38.7993 74.9767C38.7993 74.9767 38.7993 74.9767 38.7991 74.9769L36.8738 77.6586C36.3362 78.4076 35.2898 78.5797 34.5407 78.0417ZM40.0378 80.3563C39.2893 79.8188 39.1172 78.7733 39.6536 78.0243L40.8068 76.4181C41.3442 75.669 42.3914 75.4978 43.1401 76.0351C43.8888 76.5725 44.0608 77.6194 43.5231 78.3684L42.3709 79.9731C41.8335 80.7222 40.7864 80.8941 40.0378 80.3563ZM67.7347 70.504C67.2645 71.2976 66.2368 71.5608 65.443 71.0907C64.099 70.2945 55.4293 65.1582 54.505 64.6106C53.9176 64.2628 53.1598 64.4565 52.812 65.0437C52.4642 65.6309 52.658 66.3888 53.2451 66.7367L61.5144 71.6357L61.5146 71.6359C62.3085 72.1061 62.5733 73.1307 62.1012 73.9277C61.6309 74.7216 60.6027 74.9842 59.8093 74.5145C56.7508 72.7026 54.2674 71.2313 51.5356 69.6128C50.9481 69.265 50.1905 69.4588 49.8427 70.046C49.4948 70.6331 49.6886 71.3911 50.2758 71.7389L56.3687 75.3486L56.37 75.3494C57.1644 75.8211 57.4266 76.8452 56.9556 77.6406C56.4852 78.4345 55.4574 78.6975 54.6635 78.2273L51.3935 76.2902C51.3932 76.29 51.3927 76.2898 51.3924 76.2895C51.3921 76.2894 51.3917 76.2892 51.3914 76.289L49.0051 74.8751C48.4178 74.5272 47.66 74.7209 47.3122 75.3083C46.9643 75.8954 47.1581 76.6534 47.7453 77.0012L50.1321 78.4153C50.1324 78.4154 50.1327 78.4158 50.133 78.4159C50.9269 78.8861 51.1917 79.9105 50.7197 80.7076C50.2494 81.5015 49.2215 81.7645 48.4276 81.2942L45.6433 79.6449C46.8369 77.8032 46.3829 75.3212 44.5813 74.0281C44.0522 73.6484 43.4631 73.412 42.8605 73.3105C43.4997 71.6014 42.9486 69.6061 41.3967 68.4921C40.478 67.8323 39.3779 67.6044 38.3397 67.7671C38.155 66.6868 37.5642 65.7405 36.6729 65.1008C34.9965 63.8977 32.7183 64.1289 31.3111 65.5525C31.0252 65.0503 30.6304 64.5997 30.131 64.2413C28.738 63.2415 26.9294 63.2321 25.5502 64.0743L24.9841 63.7401L32.7557 50.6218L33.1257 50.84C34.7597 51.8079 36.7538 52.0097 38.6018 51.2951L40.977 50.3768C42.3363 49.8515 43.0859 49.8172 44.4304 50.4516C43.5507 51.44 43.0285 52.7375 43.0285 54.136V59.6149C43.0285 61.0701 44.2115 62.2548 45.6656 62.2558H45.6692C47.1278 62.2558 48.4993 61.688 49.5311 60.6568C50.1326 60.0557 50.5765 59.3391 50.8426 58.5568C52.4381 59.5017 65.6201 67.3076 67.1483 68.2131C67.5327 68.4408 67.8054 68.8045 67.9161 69.2373C68.0269 69.6696 67.9624 70.1196 67.7347 70.504ZM76.6971 62.0812L74.1503 63.5901C73.0308 64.2529 71.5808 63.8816 70.918 62.7627L67.0238 56.1896C66.6758 55.6024 65.9175 55.4086 65.3308 55.7561C64.7436 56.1039 64.5497 56.8619 64.8974 57.4491L68.7915 64.0224C68.8649 64.1461 68.9445 64.2637 69.0268 64.3784L67.9442 65.0109C67.7253 65.1405 67.5148 65.2832 67.3135 65.4383L50.5261 55.4969C49.7037 55.0101 48.6609 55.6035 48.6609 56.56C48.648 56.6339 48.7886 57.904 47.784 58.9082C47.219 59.4728 46.4679 59.7839 45.6691 59.7839C45.6684 59.7839 45.6678 59.7839 45.6671 59.7839C45.5747 59.7839 45.4996 59.7077 45.4996 59.6142V54.1353C45.4996 52.7041 46.4843 51.4966 47.816 51.1594L51.9202 50.1207C53.4094 49.7444 54.2512 50.5396 56.481 51.2943C58.0289 51.8931 59.712 51.8562 61.206 51.2181L61.9518 52.4772C62.2998 53.0647 63.0577 53.2583 63.6447 52.9106C64.2319 52.5628 64.4258 51.8048 64.0782 51.2177L62.6092 48.7382C61.9446 47.6163 62.3149 46.1706 63.4365 45.5057L65.9831 43.9971C66.0944 43.931 66.2415 43.9648 66.3104 44.0809L76.7806 61.7539C76.8482 61.8679 76.8109 62.0138 76.6971 62.0812Z" fill="#1D8B8A"/>
</svg>
