<svg width="27" height="27" viewBox="0 0 27 27" fill="none" xmlns="http://www.w3.org/2000/svg">
<path d="M8.84272 21.6408C8.91552 21.173 8.73722 20.9217 8.36382 20.6697C6.56142 19.4528 5.35092 17.7827 4.75132 15.6874C4.46842 14.6989 4.33172 13.6821 4.42622 12.6567C4.63782 10.3612 5.54682 8.38793 7.23662 6.79513C8.32982 5.76463 9.61262 5.05363 11.0557 4.67773C12.4598 4.31193 13.8841 4.30553 15.3134 4.62943C17.2322 5.06433 18.8119 6.04043 20.0877 7.51913C21.0052 8.58253 21.63 9.79783 21.959 11.1715C22.155 11.9898 22.2729 12.809 22.2249 13.6492C22.1068 15.7158 21.409 17.5549 20.0432 19.1217C19.4579 19.7931 18.7967 20.3847 18.0276 20.8434C17.8697 20.9375 17.7953 21.0509 17.8007 21.2356C17.8096 21.5355 17.8043 21.8359 17.8022 22.136C17.7963 22.9599 17.1419 23.6573 16.3214 23.6626C14.3204 23.6755 12.3193 23.6739 10.3183 23.6625C9.52502 23.658 8.85042 22.9527 8.84322 22.1646C8.84172 22.0021 8.84282 21.8395 8.84272 21.6408ZM12.2869 16.5153C12.5528 16.8523 12.6445 17.2263 12.6367 17.6621C12.6127 18.9872 12.628 20.313 12.6284 21.6385C12.6287 22.6011 12.629 22.5904 13.607 22.5949C13.912 22.5963 14.0223 22.5094 14.0187 22.1928C14.0041 20.905 14.0469 19.6157 14.0009 18.3294C13.9708 17.4889 14.0737 16.7202 14.62 16.0516C14.7781 15.8582 14.7612 15.6687 14.66 15.4298C14.1487 14.2228 15.0817 13.2048 16.0748 13.2675C16.8888 13.319 17.5392 13.9313 17.5515 14.755C17.5637 15.5733 16.9271 16.2386 16.1085 16.2649C15.9858 16.2689 15.8246 16.2227 15.7545 16.3359C15.4893 16.7638 15.1022 17.1387 15.101 17.692C15.0981 18.9924 15.0998 20.2929 15.0996 21.5934C15.0995 22.6278 15.0994 22.6278 16.1447 22.5887C16.5327 22.5741 16.7057 22.402 16.7138 22.0039C16.721 21.6539 16.7399 21.3015 16.7096 20.954C16.6716 20.5182 16.8636 20.2688 17.2284 20.0552C19.3095 18.8371 20.5626 17.0068 21.0325 14.6648C21.2388 13.6367 21.1869 12.5905 20.938 11.5483C20.6079 10.1659 20.0005 8.93843 19.0115 7.93293C17.0355 5.92393 14.6267 5.11593 11.8501 5.62663C10.0424 5.95903 8.50932 6.85413 7.32872 8.29053C6.39142 9.43093 5.84112 10.7313 5.59732 12.199C5.37672 13.5271 5.55722 14.7897 6.00432 16.0141C6.65602 17.799 7.82902 19.1727 9.50482 20.0997C9.79902 20.2624 9.95722 20.5007 9.93292 20.8645C9.90632 21.2629 9.92302 21.6645 9.92982 22.0645C9.93542 22.3937 10.1103 22.5737 10.4408 22.5852C10.6782 22.5934 10.9175 22.5706 11.1532 22.5923C11.4778 22.6222 11.5543 22.4752 11.5518 22.1769C11.5405 20.8515 11.5234 19.5253 11.559 18.2007C11.5753 17.595 11.431 17.0789 11.0902 16.5877C10.9386 16.3693 10.786 16.2675 10.5148 16.2643C9.44312 16.2521 8.74042 15.0417 9.30602 14.0139C9.73932 13.2266 10.6538 13.1095 11.2928 13.409C12.0179 13.7489 12.3418 14.6377 12.0029 15.3882C11.884 15.6515 11.8755 15.8488 12.0423 16.0746C12.1304 16.194 12.1896 16.3346 12.2869 16.5153ZM15.5902 14.8698C15.6109 14.9007 15.6286 14.9342 15.6529 14.9619C15.7836 15.111 15.9118 15.2972 16.1453 15.1808C16.3255 15.091 16.4895 14.948 16.4698 14.7222C16.4501 14.4965 16.2648 14.3705 16.0705 14.3305C15.8428 14.2836 15.7169 14.4706 15.613 14.644C15.5835 14.6932 15.5854 14.7612 15.5902 14.8698ZM10.9645 14.5334C10.8219 14.3912 10.6764 14.2258 10.4546 14.3712C10.2773 14.4874 10.0854 14.6429 10.2006 14.8825C10.2942 15.0771 10.4557 15.3071 10.7179 15.184C10.9462 15.0767 11.1933 14.9092 10.9645 14.5334Z" fill="#1D8B8A"/>
<path d="M12.4549 25.1182C11.7549 25.1173 11.0923 25.1208 10.4299 25.1137C10.0697 25.1099 9.83013 24.884 9.84223 24.5814C9.85393 24.2848 10.0772 24.0855 10.4246 24.0851C12.3497 24.083 14.2747 24.084 16.1998 24.0873C16.5759 24.088 16.8129 24.2914 16.8111 24.5931C16.8093 24.8952 16.5667 25.113 16.205 25.1144C14.9675 25.1192 13.73 25.1175 12.4549 25.1182Z" fill="#1D8B8A"/>
<path d="M12.9064 25.5323C13.6804 25.5326 14.4171 25.5293 15.1536 25.5345C15.5558 25.5373 15.8313 25.766 15.8295 26.0779C15.8277 26.3893 15.5535 26.6076 15.1473 26.6083C13.9364 26.6104 12.7255 26.6103 11.5146 26.6072C11.0843 26.6061 10.8463 26.4096 10.8516 26.0742C10.8569 25.735 11.0898 25.5416 11.5206 25.5351C11.9699 25.5282 12.4194 25.5327 12.9064 25.5323Z" fill="#1D8B8A"/>
<path d="M22.0873 5.302C21.8193 5.5638 21.5756 5.8132 21.316 6.045C21.0719 6.2629 20.8158 6.2503 20.5887 6.0128C20.3608 5.7744 20.3655 5.5168 20.5915 5.2843C21.0597 4.8025 21.5363 4.3288 22.0142 3.8566C22.2523 3.6214 22.5027 3.6397 22.7401 3.8609C22.9804 4.0847 22.9947 4.353 22.7605 4.6182C22.5549 4.851 22.3243 5.0616 22.0873 5.302Z" fill="#1D8B8A"/>
<path d="M3.87348 4.60418C3.65178 4.29478 3.71718 4.04748 3.96458 3.82238C4.24008 3.57168 4.47938 3.70498 4.68878 3.90648C5.13878 4.33968 5.58228 4.78018 6.01358 5.23198C6.30628 5.53848 6.30038 5.78688 6.03468 6.04418C5.80628 6.26528 5.53178 6.25548 5.24308 5.97758C4.78418 5.53578 4.34178 5.07698 3.87348 4.60418Z" fill="#1D8B8A"/>
<path d="M2.30398 13.8411C1.73388 13.841 1.19868 13.8451 0.663582 13.8391C0.263282 13.8347 -0.0100185 13.6023 0.000281507 13.2903C0.0107815 12.9723 0.276382 12.76 0.678082 12.7578C1.22568 12.7548 1.77328 12.7556 2.32078 12.758C2.79938 12.76 3.02248 12.9273 3.02528 13.2796C3.02808 13.6259 2.80348 13.8095 2.30398 13.8411Z" fill="#1D8B8A"/>
<path d="M24.0576 12.7671C24.7383 12.7617 25.3863 12.7557 26.0343 12.7607C26.4018 12.7635 26.6581 13.003 26.65 13.3148C26.6425 13.6079 26.3933 13.833 26.0366 13.8384C25.451 13.8472 24.8651 13.8348 24.2795 13.8411C23.972 13.8444 23.7257 13.7373 23.6374 13.4375C23.5395 13.1047 23.725 12.8945 24.0576 12.7671Z" fill="#1D8B8A"/>
<path d="M13.7107 2.8279C13.5073 3.0221 13.3 3.0749 13.0749 2.9506C12.8698 2.8372 12.7996 2.6512 12.8028 2.4174C12.8111 1.7946 12.8003 1.1714 12.8078 0.5485C12.8121 0.1888 12.9998 0 13.324 0C13.6514 0.0001 13.8322 0.1846 13.8356 0.5497C13.8416 1.1851 13.8352 1.8206 13.8359 2.4561C13.836 2.584 13.8189 2.7044 13.7107 2.8279Z" fill="#1D8B8A"/>
</svg>
