<svg width="48" height="55" viewBox="0 0 48 55" fill="none" xmlns="http://www.w3.org/2000/svg">
<g clip-path="url(#clip0_600_76)">
<path d="M15.6279 14.9056C15.2634 14.6505 14.761 14.7394 14.5061 15.1042L11.9458 18.7661L10.2862 17.2911C9.95363 16.9953 9.44434 17.0255 9.14883 17.358C8.8532 17.6907 8.88317 18.1997 9.21575 18.4954L10.9819 20.0652C11.6485 20.6578 12.6781 20.5309 13.1845 19.8065L15.8267 16.0276C16.0816 15.6629 15.9927 15.1605 15.6279 14.9056Z" fill="#1D8B8A"/>
<path d="M15.6278 26.6746C15.2633 26.4195 14.7609 26.5084 14.5059 26.8732L11.9457 30.5352L10.2862 29.0601C9.95363 28.7643 9.44434 28.7944 9.14883 29.1271C8.8532 29.4596 8.88317 29.9688 9.21575 30.2644L10.982 31.8345C11.6488 32.4271 12.6782 32.2995 13.1844 31.5756L15.8266 27.7966C16.0815 27.4317 15.9926 26.9295 15.6278 26.6746Z" fill="#1D8B8A"/>
<path d="M15.6279 38.2856C15.2634 38.0306 14.761 38.1195 14.5061 38.4843L11.9458 42.1462L10.2862 40.6712C9.95363 40.3755 9.44434 40.4055 9.14883 40.7381C8.8532 41.0707 8.88317 41.5799 9.21575 41.8755L10.9819 43.4454C11.6485 44.038 12.6781 43.9108 13.1845 43.1866L15.8267 39.4077C16.0816 39.043 15.9927 38.5406 15.6279 38.2856Z" fill="#1D8B8A"/>
<path d="M31.2247 15.1836H19.8388C19.3939 15.1836 19.0332 15.5442 19.0332 15.9892C19.0332 16.4343 19.3939 16.7949 19.8388 16.7949H31.2246C31.6697 16.7949 32.0303 16.4343 32.0303 15.9892C32.0303 15.5442 31.6697 15.1836 31.2247 15.1836Z" fill="#1D8B8A"/>
<path d="M31.2247 18.7639H19.8388C19.3939 18.7639 19.0332 19.1246 19.0332 19.5697C19.0332 20.0147 19.3939 20.3753 19.8388 20.3753H31.2246C31.6697 20.3753 32.0303 20.0147 32.0303 19.5697C32.0303 19.1246 31.6697 18.7639 31.2247 18.7639Z" fill="#1D8B8A"/>
<path d="M32.0304 27.5C32.0304 27.055 31.6698 26.6943 31.2247 26.6943H19.8388C19.3939 26.6943 19.0332 27.055 19.0332 27.5C19.0332 27.945 19.3939 28.3057 19.8388 28.3057H31.2246C31.6697 28.3057 32.0304 27.945 32.0304 27.5Z" fill="#1D8B8A"/>
<path d="M19.8388 30.2749C19.3939 30.2749 19.0332 30.6355 19.0332 31.0805C19.0332 31.5256 19.3939 31.8863 19.8388 31.8863H25.5317C25.9767 31.8863 26.3373 31.5256 26.3373 31.0805C26.3373 30.6355 25.9767 30.2749 25.5317 30.2749H19.8388Z" fill="#1D8B8A"/>
<path d="M45.9274 16.54C44.5095 15.4036 42.4428 15.6318 41.3069 17.0492C40.4932 18.0644 21.5624 41.6843 20.0815 43.532C19.9793 43.6592 20.1342 43.3993 17.3154 49.0452H5.81003C5.60979 49.0452 5.44695 48.8824 5.44695 48.6822V8.00929H10.7657V8.55262C10.7657 9.66896 11.674 10.5771 12.7902 10.5771H28.1866C29.303 10.5771 30.2112 9.66896 30.2112 8.55262V8.00929H35.53V20.3196C35.53 20.7647 35.8906 21.1253 36.3356 21.1253C36.7807 21.1253 37.1413 20.7647 37.1413 20.3196V8.00929H38.3993C38.932 8.00929 39.3655 8.44273 39.3655 8.97544V15.5225C39.3655 15.9675 39.7261 16.3282 40.1711 16.3282C40.6162 16.3282 40.9768 15.9675 40.9768 15.5225V8.97544C40.9768 7.55424 39.8205 6.39795 38.3993 6.39795H30.1132C29.7509 4.92562 28.4201 3.83013 26.8377 3.83013H25.2872C25.0207 3.83013 24.8039 3.61325 24.8039 3.34674C24.8039 1.50134 23.3026 0 21.4573 0H19.5197C17.6744 0 16.1731 1.50134 16.1731 3.34663C16.1731 3.61314 15.9562 3.83002 15.6896 3.83002H14.1392C12.5567 3.83002 11.2259 4.92551 10.8637 6.39784H2.57749C1.15629 6.39784 0 7.55414 0 8.97533V52.4225C0 53.8437 1.15629 55 2.57749 55H38.3992C39.8204 55 40.9766 53.8437 40.9766 52.4225V31.8955C40.9766 31.4504 40.6161 31.0897 40.171 31.0897C39.7259 31.0897 39.3654 31.4504 39.3654 31.8955V52.4226C39.3654 52.9553 38.9319 53.3888 38.3992 53.3888H2.57749C2.04478 53.3888 1.61133 52.9553 1.61133 52.4226V8.97544C1.61133 8.44273 2.04478 8.00929 2.57749 8.00929H3.83561V48.6823C3.83561 49.7709 4.72131 50.6567 5.81003 50.6567H16.906C16.9766 51.1258 17.2163 51.5679 17.6042 51.8787C18.3071 52.4421 19.3264 52.4407 20.0281 51.8716L21.5257 50.6567H35.1669C36.2556 50.6567 37.1413 49.7709 37.1413 48.6823V36.6713C37.1413 36.2262 36.7807 35.8655 36.3356 35.8655C35.8906 35.8655 35.53 36.2262 35.53 36.6713V48.6823C35.53 48.8825 35.367 49.0453 35.1669 49.0453H23.5127C25.1758 47.6876 25.1159 47.762 25.2111 47.6433C26.6927 45.7948 45.6236 22.1748 46.4366 21.1605C47.57 19.746 47.3417 17.6733 45.9274 16.54ZM12.3771 7.20361C12.3771 6.23198 13.1675 5.44147 14.1392 5.44147H15.6896C16.8446 5.44147 17.7844 4.50174 17.7844 3.34674C17.7844 2.38993 18.5628 1.61143 19.5197 1.61143H21.4573C22.4141 1.61143 23.1925 2.38993 23.1925 3.34674C23.1925 4.50174 24.1322 5.44147 25.2872 5.44147H26.8377C27.8093 5.44147 28.5999 6.23198 28.5999 7.20361V8.55262C28.5999 8.78035 28.4144 8.96577 28.1866 8.96577H12.7902C12.5623 8.96577 12.3771 8.78035 12.3771 8.55262V7.20361ZM19.0129 50.6202C18.8969 50.7143 18.7284 50.7145 18.612 50.6215C18.4955 50.5281 18.4592 50.3633 18.5256 50.2297L21.0043 45.2527L23.3308 47.1174L19.0129 50.6202ZM24.4828 45.9755L21.8679 43.8797L39.1135 22.3625L41.7283 24.4583L24.4828 45.9755ZM45.1793 20.1527L42.7361 23.201L40.1212 21.1052L42.5643 18.0569C43.1442 17.3334 44.1985 17.2193 44.9197 17.7973C45.6406 18.3751 45.757 19.4317 45.1793 20.1527Z" fill="#1D8B8A"/>
</g>
<defs>
<clipPath id="clip0_600_76">
<rect width="47.3" height="55" fill="white"/>
</clipPath>
</defs>
</svg>
