<svg width="48" height="48" viewBox="0 0 48 48" fill="none" xmlns="http://www.w3.org/2000/svg">
<path d="M37.375 13.6754C36.2031 12.5007 34.3003 12.5004 33.1281 13.6746L25.4507 21.365C24.279 22.5386 22.3773 22.539 21.2052 21.3657L13.8359 13.9891C12.6638 12.8158 10.7621 12.8162 9.59044 13.9898L2.11596 21.4769C0.946771 22.6481 0.946771 24.5448 2.11596 25.716L21.5133 45.146C22.6852 46.32 24.5875 46.32 25.7595 45.146L45.1575 25.7153C46.3264 24.5444 46.3267 22.6482 45.1582 21.4769L37.375 13.6754Z" fill="#1D8B8A"/>
<path d="M21.6038 2.12308L18.558 5.17403C17.3874 6.34658 17.3874 8.24766 18.558 9.42021L21.3401 12.2071C22.5107 13.3796 24.4086 13.3796 25.5792 12.2071L28.625 9.15611C29.7956 7.98356 29.7956 6.08248 28.625 4.90993L25.8428 2.12308C24.6722 0.95053 22.7744 0.950532 21.6038 2.12308Z" fill="#1D8B8A"/>
</svg>
