<svg width="54" height="54" viewBox="0 0 54 54" fill="none" xmlns="http://www.w3.org/2000/svg">
<g clip-path="url(#clip0_691_71)">
<path d="M39.1117 12.3445C39.1117 11.944 38.7401 11.6313 38.4471 11.6313C38.3788 11.6313 38.3104 11.6412 38.2617 11.6804L35.7803 13.2921C35.5558 13.4387 35.4775 13.6732 35.4775 13.8392C35.4775 14.0052 35.5558 14.2396 35.7803 14.3863L38.2617 15.998C38.3104 16.0371 38.3788 16.047 38.4471 16.047C38.7401 16.047 39.1117 15.7343 39.1117 15.3339C39.1117 15.1678 39.0433 15.0212 38.9358 14.9528L37.2161 13.8392L38.9358 12.7256C39.0429 12.6572 39.1117 12.5105 39.1117 12.3445Z" fill="#1D8B8A"/>
<path d="M44.0255 9.00342C43.8496 9.00342 43.6931 9.08128 43.6152 9.24773L40.1862 16.2906C40.157 16.3492 40.1372 16.4175 40.1372 16.4765C40.1372 16.7204 40.3523 16.9939 40.6847 16.9939C40.8701 16.9939 41.0559 16.8963 41.1243 16.75L44.5628 9.70668C44.592 9.64818 44.6019 9.57979 44.6019 9.52087C44.6015 9.20859 44.2987 9.00342 44.0255 9.00342Z" fill="#1D8B8A"/>
<path d="M48.9584 13.2921L46.4774 11.6804C46.4283 11.6412 46.36 11.6313 46.2916 11.6313C45.9986 11.6313 45.6274 11.944 45.6274 12.3445C45.6274 12.5105 45.6958 12.6572 45.8034 12.7256L47.5226 13.8392L45.8034 14.9528C45.6958 15.0212 45.6274 15.1678 45.6274 15.3339C45.6274 15.7343 45.9986 16.047 46.2916 16.047C46.36 16.047 46.4283 16.0371 46.4774 15.998L48.9584 14.3863C49.1833 14.2396 49.2612 14.0052 49.2612 13.8392C49.2612 13.6732 49.1833 13.4387 48.9584 13.2921Z" fill="#1D8B8A"/>
<path d="M50.1749 3.93283H33.1434C32.2634 1.63559 30.0349 0 27.4316 0H16.008C12.6375 0 9.89493 2.7426 9.89493 6.11307V13.0546C9.21351 13.6417 8.89669 14.56 9.06437 15.4845L9.51343 17.9556C9.67493 18.8043 10.1256 19.2406 10.475 19.4569C10.866 19.6988 11.2998 19.7787 11.6982 19.7807V20.2199C11.6982 22.448 12.998 24.9034 15.2644 26.9572C15.6912 27.3436 16.1349 27.7 16.5873 28.0221V29.3471C16.5873 29.7508 16.2993 30.0973 15.9021 30.1711C15.8836 30.1744 15.8655 30.1785 15.8473 30.183C15.8337 30.1867 14.4758 30.5406 12.7006 31.0441H6.9002C6.24802 31.0441 5.61892 31.318 5.17438 31.7951C4.72985 32.2722 4.50161 32.9194 4.54816 33.57L4.56382 33.7933C1.96953 35.0943 0.337239 37.427 0.181508 40.0781C0.181096 40.0892 0.180684 40.1004 0.180272 40.1115L0.000233792 50.9999C-0.00965391 51.7983 0.294393 52.551 0.855107 53.1192C1.41665 53.6873 2.16523 54 2.96407 54H40.4759C41.2744 54 42.0234 53.6873 42.5845 53.1192C43.1456 52.551 43.4497 51.7988 43.4398 50.9966L43.2597 40.1115C43.2593 40.1004 43.2589 40.0892 43.2581 40.0781C43.0982 37.3504 41.3753 34.96 38.6488 33.6833C38.5989 33.6598 38.5466 33.6359 38.4926 33.6116L38.4955 33.57C38.5416 32.9194 38.3134 32.2726 37.8693 31.7951C37.4248 31.318 36.7956 31.0441 36.1435 31.0441H30.7394C28.9646 30.5406 27.6063 30.1867 27.5927 30.1834C27.5745 30.1785 27.5564 30.1744 27.5379 30.1711C27.1407 30.0973 26.8527 29.7508 26.8527 29.3471V28.0226C27.3051 27.7 27.7488 27.3436 28.1756 26.9572C29.6159 25.652 30.6661 24.1845 31.24 22.7162H36.3795L35.4818 26.3396C35.3323 26.944 35.572 27.5545 36.0928 27.8952C36.3375 28.0555 36.6119 28.135 36.885 28.135C37.194 28.135 37.5014 28.0337 37.7634 27.8322L44.4236 22.7162H50.1749C52.2592 22.7162 53.9545 21.0208 53.9545 18.9366V7.7124C53.9545 5.62857 52.2592 3.93283 50.1749 3.93283ZM31.7434 14.4212C32.0458 14.3182 32.3322 14.2758 32.5188 14.2589C32.7672 14.4793 32.8842 14.8423 32.8191 15.2015L32.3726 17.6602C32.3075 18.0034 32.1756 18.085 32.1324 18.1118C32.0405 18.1686 31.9049 18.1979 31.7426 18.1995L31.7434 14.4212ZM11.477 6.11307C11.477 3.61478 13.5097 1.58203 16.008 1.58203H27.432C29.9303 1.58203 31.963 3.61478 31.963 6.11307V12.7407C31.5716 12.8099 31.0843 12.9426 30.6084 13.1964V8.37653C30.6084 6.6433 29.1982 5.23306 27.465 5.23306H25.3272C24.586 5.23306 23.8621 5.49138 23.2882 5.96022L23.0789 6.13161C22.6966 6.44431 22.2138 6.61652 21.7198 6.61652C21.2258 6.61652 20.7434 6.44431 20.3611 6.13202L20.1514 5.96022C19.5779 5.49138 18.8536 5.23306 18.1124 5.23306H15.975C14.2418 5.23306 12.8316 6.64288 12.8316 8.37653V13.196C12.3557 12.9426 11.8684 12.8095 11.477 12.7407V6.11307ZM11.3076 18.1118C11.2644 18.085 11.1325 18.0034 11.0687 17.6668L10.6209 15.2019C10.5558 14.8427 10.6728 14.4801 10.9204 14.2593C11.107 14.2762 11.3937 14.3178 11.6966 14.4208L11.6974 18.1995C11.5355 18.1979 11.3999 18.1686 11.3076 18.1118ZM4.3088 51.8449C4.3088 52.0435 4.33599 52.2355 4.38625 52.418H2.96407C2.59163 52.418 2.24268 52.2721 1.98066 52.0072C1.71904 51.7423 1.57773 51.3913 1.58185 51.0226L1.76189 40.1548C1.8789 38.2555 2.93152 36.6088 4.68783 35.5318L5.65352 49.0817C5.67124 49.3305 5.72809 49.5683 5.81708 49.7895C4.94367 50.0647 4.3088 50.8821 4.3088 51.8449ZM37.3897 49.0817L38.3711 35.3135C40.356 36.3785 41.5529 38.1216 41.6781 40.1548L41.8581 51.0193C41.8623 51.3913 41.7205 51.7423 41.4593 52.0072C41.1973 52.2721 40.8484 52.418 40.4759 52.418H39.0537C39.1044 52.2355 39.1312 52.0435 39.1312 51.8449C39.1312 50.7519 38.3134 49.8468 37.2575 49.7087C37.3288 49.5106 37.3745 49.3005 37.3897 49.0817ZM37.5492 51.8449C37.5492 52.1609 37.2921 52.418 36.9765 52.418H6.46349C6.14791 52.418 5.89083 52.1609 5.89083 51.8449C5.89083 51.5293 6.14791 51.2722 6.46349 51.2722H36.9765C37.2921 51.2722 37.5492 51.5293 37.5492 51.8449ZM36.7116 32.8733C36.8599 33.0327 36.9333 33.24 36.9176 33.4575L35.8118 48.9696C35.783 49.3738 35.4431 49.6902 35.0377 49.6902H8.00556C7.60058 49.6902 7.26069 49.3738 7.23144 48.9692L6.12607 33.4575C6.11042 33.24 6.18375 33.0327 6.33207 32.8733C6.48079 32.7139 6.68226 32.6261 6.9002 32.6261H36.1435C36.361 32.6261 36.5629 32.7139 36.7116 32.8733ZM25.9657 31.0441H17.4743C17.9068 30.6041 18.1693 30.0017 18.1693 29.3471V28.9932C19.4164 29.6388 20.6556 30.0009 21.7198 30.0009C22.784 30.0009 24.0232 29.6388 25.2707 28.9932V29.3471C25.2707 30.0017 25.5331 30.6041 25.9657 31.0441ZM27.1131 25.7846C25.3469 27.3848 23.2301 28.4189 21.7198 28.4189C20.2099 28.4189 18.0931 27.3848 16.3269 25.7846C14.3905 24.0308 13.2802 22.0022 13.2802 20.2195L13.2786 15.2361C13.2889 15.2361 13.2992 15.2365 13.3095 15.2365C13.4524 15.2365 13.5966 15.2085 13.7347 15.1508C14.1471 14.9786 14.4136 14.5786 14.4136 14.132V8.37653C14.4136 7.51547 15.114 6.81509 15.975 6.81509H18.1128C18.4898 6.81509 18.8581 6.94652 19.1498 7.18506L19.3599 7.35686C20.0241 7.89944 20.862 8.19855 21.7198 8.19855C22.5775 8.19855 23.4159 7.89944 24.0801 7.35645L24.2898 7.18506C24.5815 6.94652 24.9502 6.81509 25.3272 6.81509H27.4645C28.3256 6.81509 29.0264 7.51547 29.0264 8.37653V14.132C29.0264 14.579 29.2925 14.9786 29.7053 15.1508C29.8528 15.2126 30.0082 15.2402 30.161 15.2361L30.1598 20.2199C30.1602 22.0022 29.0495 24.0308 27.1131 25.7846ZM52.3725 18.9366C52.3725 20.1482 51.387 21.1341 50.1749 21.1341H44.155C43.9807 21.1341 43.8114 21.1918 43.6734 21.2981L37.1121 26.3379L38.1581 22.1155C38.2166 21.8794 38.1634 21.6293 38.0135 21.4378C37.8635 21.2462 37.6336 21.1341 37.3906 21.1341H31.6718C31.7183 20.8264 31.7422 20.5211 31.7422 20.2199V19.7807C32.1402 19.7787 32.574 19.6988 32.965 19.4569C33.3148 19.2406 33.7655 18.8043 33.9278 17.9495L34.3756 15.4845C34.5437 14.56 34.2261 13.6413 33.5451 13.0546V6.11307C33.5451 5.91161 33.5352 5.71179 33.5158 5.51486H50.1749C51.387 5.51486 52.3725 6.50075 52.3725 7.7124V18.9366Z" fill="#1D8B8A"/>
<path d="M21.7198 44.7575C23.3595 44.7575 24.6935 43.4235 24.6935 41.7838C24.6935 40.1441 23.3595 38.8101 21.7198 38.8101C20.0801 38.8101 18.7461 40.1441 18.7461 41.7838C18.7461 43.4235 20.0801 44.7575 21.7198 44.7575ZM21.7198 40.3921C22.4874 40.3921 23.1115 41.0167 23.1115 41.7838C23.1115 42.5513 22.4874 43.1755 21.7198 43.1755C20.9527 43.1755 20.3281 42.5513 20.3281 41.7838C20.3281 41.0167 20.9527 40.3921 21.7198 40.3921Z" fill="#1D8B8A"/>
</g>
<defs>
<clipPath id="clip0_691_71">
<rect width="54" height="54" fill="white"/>
</clipPath>
</defs>
</svg>
