<svg width="54" height="54" viewBox="0 0 54 54" fill="none" xmlns="http://www.w3.org/2000/svg">
<g clip-path="url(#clip0_50_808)">
<path d="M15.5592 23.0669H50.3094C51.3287 23.0669 52.248 23.4824 52.9158 24.1498V24.1562C53.5832 24.824 53.9992 25.7433 53.9992 26.7562V50.3099C53.9992 51.3224 53.5832 52.248 52.9158 52.9154C52.248 53.5836 51.3287 53.9988 50.3094 53.9988H15.5592C14.5462 53.9988 13.6207 53.5836 12.9532 52.9154C12.2854 52.248 11.8699 51.3283 11.8699 50.3099V26.7562C11.8699 25.7433 12.2854 24.8177 12.9532 24.1498C13.6211 23.4824 14.5462 23.0669 15.5592 23.0669ZM50.3094 24.7536H15.5592C15.0086 24.7536 14.5108 24.9818 14.148 25.3446C13.7848 25.7078 13.5565 26.2056 13.5565 26.7562V50.3099C13.5565 50.8604 13.7848 51.3637 14.148 51.727C14.5104 52.0894 15.0086 52.3121 15.5592 52.3121H50.3094C50.86 52.3121 51.3633 52.0898 51.7265 51.727C52.0893 51.3637 52.3125 50.86 52.3125 50.3099V26.7562C52.3125 26.2056 52.0897 25.7023 51.7265 25.3391V25.345C51.3633 24.9822 50.86 24.7536 50.3094 24.7536Z" fill="#1D8B8A"/>
<path d="M25.8897 16.0337H39.9853C40.7878 16.0337 41.5252 16.3615 42.0525 16.8943C42.5795 17.4271 42.9136 18.1595 42.9136 18.9615V23.9097V24.753H42.0698H38.5096H37.6667V23.9097V21.1696H28.2087V23.9101V24.7534H27.365H23.8048H22.9614V23.9101V18.9615C22.9614 18.1595 23.2892 17.4212 23.8161 16.8943C24.349 16.3615 25.0818 16.0337 25.8897 16.0337ZM39.9849 17.7203H25.8897C25.5496 17.7203 25.2396 17.8604 25.0109 18.0891C24.7886 18.3118 24.6485 18.6219 24.6485 18.9615V23.0663H26.5221V20.3258V19.4829H27.3654H38.5096H39.3534V20.3258V23.0668H41.2269V18.9619C41.2269 18.6219 41.0864 18.3118 40.8641 18.0895H40.8578C40.635 17.8608 40.325 17.7203 39.9849 17.7203Z" fill="#1D8B8A"/>
<path d="M9.31669 45.7713C9.77948 45.7713 10.16 46.1455 10.16 46.6142C10.16 47.0766 9.77948 47.4571 9.31669 47.4571H2.52998C1.83895 47.4571 1.20656 47.1703 0.743766 46.7138V46.7079C0.286875 46.251 0 45.619 0 44.9217V2.52956C0 1.83853 0.286875 1.20614 0.743766 0.743766C1.20023 0.286875 1.83263 0 2.52998 0H26.2524C26.6157 0 26.9553 0.0704531 27.2721 0.210938C27.5826 0.351422 27.8636 0.556031 28.1154 0.819703L34.4811 7.63045C34.4984 7.64817 34.5102 7.66547 34.5279 7.68319C34.7321 7.91142 34.8789 8.1637 34.9844 8.42695C35.0899 8.71425 35.1485 9.01842 35.1485 9.34074V13.4751C35.1485 13.9434 34.768 14.3184 34.3052 14.3184C33.8369 14.3184 33.456 13.9434 33.456 13.4751V9.34074C33.456 9.22345 33.4446 9.11841 33.4091 9.02433C33.3741 8.94839 33.3332 8.87794 33.2805 8.80749C33.2686 8.79609 33.2564 8.79019 33.245 8.77838L26.8853 1.96763C26.7971 1.87397 26.6979 1.80352 26.5925 1.75078C26.4933 1.70986 26.382 1.68666 26.2529 1.68666H2.52998C2.30175 1.68666 2.09081 1.78031 1.93852 1.93852L1.93261 1.93261C1.78031 2.08448 1.68666 2.30133 1.68666 2.52956V44.9217C1.68666 45.1558 1.78031 45.3668 1.93261 45.5191L1.93852 45.525C2.09081 45.6718 2.30133 45.7713 2.52998 45.7713H9.31669Z" fill="#1D8B8A"/>
<path d="M29.8776 38.4398L15.4073 35.6926C14.4294 35.5112 13.527 35.0838 12.8777 34.4337C12.2563 33.8131 11.8699 32.9993 11.8699 32.021H13.5565C13.5565 32.5188 13.7561 32.9289 14.0721 33.2453C14.4762 33.6431 15.0677 33.9186 15.7178 34.0414L30.1881 36.7878L29.8776 38.4398ZM53.9987 32.021C53.9987 32.9989 53.6123 33.8072 52.9913 34.4278V34.4337C52.3412 35.0838 51.4396 35.5116 50.4676 35.6926L35.9969 38.4626L35.6809 36.8114L50.1512 34.0414C50.8072 33.9127 51.3987 33.6435 51.8024 33.2453C52.1189 32.9289 52.3121 32.5184 52.3121 32.021H53.9987Z" fill="#1D8B8A"/>
<path d="M21.4916 7.53662C21.9599 7.53662 22.335 7.91167 22.335 8.37995C22.335 8.84275 21.9599 9.22328 21.4916 9.22328H9.72132C9.25261 9.22328 8.87757 8.84275 8.87757 8.37995C8.87757 7.91167 9.25261 7.53662 9.72132 7.53662H21.4916ZM5.70338 7.53662C6.17208 7.53662 6.55304 7.91167 6.55304 8.37995C6.55304 8.84275 6.1725 9.22328 5.70338 9.22328H5.07141C4.60819 9.22328 4.22766 8.84275 4.22766 8.37995C4.22766 7.91167 4.60819 7.53662 5.07141 7.53662H5.70338Z" fill="#1D8B8A"/>
<path d="M15.9457 15.1904C16.4085 15.1904 16.789 15.5705 16.789 16.0338C16.789 16.502 16.4085 16.8767 15.9457 16.8767H9.7209C9.25261 16.8767 8.87757 16.502 8.87757 16.0338C8.87757 15.571 9.25261 15.1904 9.7209 15.1904H15.9457ZM5.7038 15.1904C6.17208 15.1904 6.55304 15.5705 6.55304 16.0338C6.55304 16.502 6.17251 16.8767 5.7038 16.8767H5.07141C4.60861 16.8767 4.22766 16.502 4.22766 16.0338C4.22766 15.571 4.60819 15.1904 5.07141 15.1904H5.7038Z" fill="#1D8B8A"/>
<path d="M21.4916 11.3662C21.9599 11.3662 22.335 11.7413 22.335 12.2095C22.335 12.6719 21.9599 13.0529 21.4916 13.0529H9.72132C9.25261 13.0529 8.87757 12.6723 8.87757 12.2095C8.87757 11.7413 9.25261 11.3662 9.72132 11.3662H21.4916ZM5.70338 11.3662C6.17208 11.3662 6.55304 11.7413 6.55304 12.2095C6.55304 12.6719 6.1725 13.0529 5.70338 13.0529H5.07141C4.60819 13.0529 4.22766 12.6723 4.22766 12.2095C4.22766 11.7413 4.60819 11.3662 5.07141 11.3662H5.70338Z" fill="#1D8B8A"/>
<path d="M27.1193 0.310078L34.7962 8.64337C35.1067 8.98298 35.0894 9.51581 34.7435 9.8318C34.5853 9.97819 34.3811 10.0545 34.1756 10.0545H28.8878C27.9863 10.0545 27.1721 9.6854 26.5806 9.09436C26.5633 9.07664 26.5452 9.05934 26.5279 9.04162C25.9655 8.45564 25.62 7.65956 25.62 6.7867V0.843328C25.62 0.380531 25.995 0 26.4637 0C26.7266 0 26.9611 0.122766 27.1193 0.310078ZM32.2552 8.36831L27.3067 3.00375V6.78712C27.3067 7.20858 27.4708 7.58911 27.7344 7.87008C27.7458 7.88189 27.7581 7.8937 27.7699 7.90552C28.0567 8.19239 28.4546 8.36789 28.8878 8.36789L32.2552 8.36831Z" fill="#1D8B8A"/>
<path d="M38.3455 4.54388C38.2519 5.00035 37.8072 5.29313 37.3503 5.19399C36.8934 5.09991 36.6007 4.65526 36.6943 4.20385L37.0166 2.66949L37.4381 0.672758C37.5199 0.27493 37.8714 -0.000976562 38.2637 -0.000976562H39.7394H41.2151C41.6425 -0.000976562 41.9943 0.31543 42.0526 0.730977L42.6731 3.68241C43.1064 3.8056 43.5283 3.95199 43.9379 4.12159C44.3539 4.2916 44.7576 4.49073 45.1441 4.70757L47.7268 3.02091C48.0605 2.80407 48.4997 2.8568 48.7747 3.13229H48.781L49.8235 4.17474C49.8349 4.19246 49.8526 4.20427 49.8648 4.22157L50.8659 5.2231C51.1583 5.50998 51.1883 5.96687 50.96 6.29466L49.2907 8.85334C49.513 9.2402 49.7066 9.64393 49.8821 10.0599C50.0462 10.4695 50.1926 10.8914 50.3154 11.3247L53.3255 11.963C53.7414 12.0448 54.0224 12.4199 53.9992 12.8295V14.2592V15.735C53.9992 16.1623 53.6832 16.5196 53.2673 16.5724L50.3158 17.193C50.1931 17.6321 50.0462 18.054 49.8826 18.4577C49.6366 19.0492 49.3438 19.6111 49.0101 20.133C48.7646 20.5308 48.2432 20.6481 47.8449 20.3963C47.4526 20.1444 47.3357 19.6234 47.5871 19.2306C47.8744 18.7801 48.1204 18.3054 48.3254 17.814C48.5245 17.3334 48.6823 16.8415 48.7996 16.3382C48.8523 16.0045 49.1097 15.7291 49.4556 15.6531L52.3126 15.0557V14.2592H52.3185V13.4686L49.4548 12.8654C49.1447 12.8012 48.881 12.5608 48.8047 12.2271C48.6933 11.7061 48.5296 11.2023 48.3246 10.7049C48.1195 10.213 47.8736 9.73843 47.5863 9.28787C47.4167 9.01829 47.4108 8.66687 47.5922 8.37999L49.1915 5.93227L48.6756 5.41126C48.6583 5.39987 48.6469 5.38763 48.6287 5.36991L48.0668 4.80798L45.6714 6.37144C45.3963 6.58196 45.0154 6.60559 44.7116 6.41237C44.2607 6.12549 43.7865 5.87954 43.2946 5.67451C42.814 5.47538 42.3167 5.31718 41.8129 5.20032C41.4851 5.14759 41.2037 4.89573 41.1337 4.5443L40.5296 1.6861H39.7394H38.9425L38.6674 3.00952L38.3455 4.54388ZM39.7394 9.03559C39.2707 9.03559 38.8957 8.66054 38.8957 8.19226C38.8957 7.72398 39.2707 7.34893 39.7394 7.34893C41.648 7.34893 43.3756 8.12223 44.6289 9.37519C45.8764 10.6227 46.6493 12.3503 46.6493 14.2592C46.6493 14.763 46.5966 15.2608 46.4911 15.735C46.3856 16.2205 46.2274 16.6897 46.0232 17.1402C45.8296 17.5621 45.3318 17.7494 44.9044 17.5562C44.483 17.3626 44.3012 16.8647 44.4948 16.4433C44.6467 16.1155 44.7639 15.7582 44.8458 15.3831C44.9222 15.0203 44.9631 14.6453 44.9631 14.2588C44.9631 12.8181 44.3775 11.512 43.4346 10.5636C42.4858 9.62157 41.1797 9.03559 39.7394 9.03559Z" fill="#1D8B8A"/>
<path d="M30.1531 32.0449H35.7218C36.1614 32.0449 36.5593 32.2263 36.8466 32.5128L36.8525 32.5187C37.1398 32.8064 37.3207 33.2101 37.3207 33.6493V39.8218C37.3207 41.0279 36.8293 42.1231 36.0323 42.9192C35.2422 43.7161 34.1411 44.208 32.9345 44.208C31.7279 44.208 30.6328 43.7161 29.8367 42.9192C29.0457 42.1231 28.5479 41.0283 28.5479 39.8218V33.6493C28.5479 33.2101 28.7297 32.8056 29.0225 32.5187V32.5128C29.3152 32.2263 29.7139 32.0449 30.1531 32.0449ZM35.6345 33.7316H30.2408V39.8218C30.2408 40.5592 30.5395 41.2388 31.0314 41.7253C31.5233 42.2172 32.1971 42.5213 32.9345 42.5213C33.6787 42.5213 34.3516 42.2172 34.8435 41.7253C35.3295 41.2393 35.6345 40.5592 35.6345 39.8218V33.7316Z" fill="#1D8B8A"/>
<path d="M32.9341 40.5534C33.3999 40.5534 33.7775 40.1758 33.7775 39.71C33.7775 39.2443 33.3999 38.8667 32.9341 38.8667C32.4684 38.8667 32.0908 39.2443 32.0908 39.71C32.0908 40.1758 32.4684 40.5534 32.9341 40.5534Z" fill="#1D8B8A"/>
</g>
<defs>
<clipPath id="clip0_50_808">
<rect width="54" height="54" fill="white"/>
</clipPath>
</defs>
</svg>
